<?xml version="1.0" encoding="utf-8"?>
<!-- Generator: Adobe Illustrator 17.0.0, SVG Export Plug-In . SVG Version: 6.00 Build 0)  -->
<!DOCTYPE svg PUBLIC "-//W3C//DTD SVG 1.1//EN" "http://www.w3.org/Graphics/SVG/1.1/DTD/svg11.dtd">
<svg version="1.1" id="Layer_1" xmlns="http://www.w3.org/2000/svg" xmlns:xlink="http://www.w3.org/1999/xlink" x="0px" y="0px"
	 width="50px" height="50px" viewBox="0 0 50 50" enable-background="new 0 0 50 50" xml:space="preserve">
<g opacity="0.75">
	<path d="M16.221,32.519c0,1.545,0.514,2.798,1.544,3.757c1.116,1.049,2.633,1.573,4.544,1.573c2.528,0,4.676-0.99,6.441-2.971
		l-7.148-9.261C18.013,27.249,16.221,29.55,16.221,32.519z"/>
	<path d="M41.333,22.958H40v4.352h1.217c1.488,0,2.12-1.104,2.12-2.176C43.337,24.093,42.766,22.958,41.333,22.958z"/>
	<path d="M9.968,23.981c0-0.624-0.28-1.023-0.968-1.023H7.023v1.667h1.784C9.48,24.625,9.968,24.565,9.968,23.981z"/>
	<path d="M8.808,25.292H7.023v2.058h1.752c0.584,0,1.36-0.298,1.36-1.058C10.128,25.588,9.416,25.292,8.808,25.292z"/>
	<path d="M25,0C11.193,0,0,11.193,0,25s11.193,25,25,25c13.807,0,25-11.193,25-25S38.807,0,25,0z M40.792,40.708
		C36.573,44.927,30.965,47.25,25,47.25s-11.574-2.323-15.792-6.542C4.99,36.49,2.667,30.882,2.667,24.917S4.99,13.342,9.208,9.125
		C13.427,4.906,19.035,2.583,25,2.583s11.573,2.323,15.792,6.542c4.219,4.219,6.542,9.826,6.542,15.792S45.01,36.491,40.792,40.708z
		"/>
	<path d="M25,3.583c-5.699,0-11.056,2.219-15.085,6.249c-4.029,4.029-6.249,9.387-6.249,15.085c0,11.764,9.57,21.334,21.334,21.334
		s21.334-9.57,21.334-21.334S36.764,3.583,25,3.583z M9,27.958H6.333v-5.667H9c1,0,1.656,0.618,1.656,1.682
		c0,0.512-0.296,0.944-0.832,1.152c0.68,0.192,1.008,0.816,1.008,1.336C10.832,27.654,10.056,27.958,9,27.958z M33.029,40.333
		l-2.471-3.068c-2.411,2.407-5.191,3.611-8.337,3.611c-3.208,0-5.605-0.818-7.191-2.461c-1.413-1.436-2.118-3.371-2.118-5.802
		c0-2.169,0.603-4.016,1.809-5.54c1.088-1.318,2.793-2.562,5.117-3.736l-1.033-1.408c-1.781-2.432-2.67-4.482-2.67-6.154
		c0-1.962,0.708-3.559,2.126-4.79c1.419-1.23,3.312-1.848,5.683-1.848c3.128,0,5.848,0.923,8.16,2.77l-1.763,2.726
		c-2.117-1.646-4.275-2.468-6.48-2.468c-1.352,0-2.423,0.316-3.216,0.947c-0.794,0.631-1.191,1.475-1.191,2.531
		c0,1.262,0.616,2.699,1.851,4.312l9.391,12.193c0.706-1.295,1.41-3.104,2.115-5.427l2.909,0.882
		c-0.706,2.618-1.736,4.971-3.088,7.059l4.455,5.672H33.029z M41.217,28.006h-1.883v-5.714h1.883c1.904,0,2.816,1.466,2.816,2.85
		C44.033,26.574,43.177,28.006,41.217,28.006z"/>
</g>
</svg>
